# xmcd
#
# Track frame offsets:
#	150
#	15848
#	30115
#	43584
#	56481
#	69029
#	80090
#	93335
#	105867
#	119836
#	131230
#	144835
#	155784
#	167286
#	178900
#	194499
#
# Disc length: 2801 seconds
#
# Revision: 1
# Processed by: cddbd v1.5.2PL0 Copyright (c) Steve Scherf et al.
# Submitted via: EZCDAudioConverter 7.0.6.1
#
DISCID=c80aef10
DTITLE=Glen Campbell - Greatest Hits
DYEAR=2009
DGENRE=Country
TTITLE0=Rhinestone Cowboy
TTITLE1=Wichita Lineman
TTITLE2=Southern Nights
TTITLE3=By The Time I Get To Phoenix
TTITLE4=Galveston
TTITLE5=Try A Little Kindness
TTITLE6=Gentle On My Mind
TTITLE7=I Wanna Live
TTITLE8=Country Boy (You Got Your Feet In L.A.)
TTITLE9=True Grit
TTITLE10=Honey Come Back
TTITLE11=It’S Only Make Believe
TTITLE12=Dreams Of The Everyday Housewife
TTITLE13=Hey Little One
TTITLE14=Times Like These
TTITLE15=These Days
EXTD=
EXTT0=
EXTT1=
EXTT2=
EXTT3=
EXTT4=
EXTT5=
EXTT6=
EXTT7=
EXTT8=
EXTT9=
EXTT10=
EXTT11=
EXTT12=
EXTT13=
EXTT14=
EXTT15=
PLAYORDER=
